<svg width="793" height="403" viewBox="0 0 793 403" fill="none" xmlns="http://www.w3.org/2000/svg">
<path d="M1165.03 -152.633C1180.11 -96.3548 1199.08 26.5046 1200.2 139.061C1200.76 195.341 1196.86 249.009 1185.79 290.478C1174.71 331.984 1156.51 361.078 1128.63 368.549C1072.28 383.648 988.491 405.744 908.638 386.182C868.728 376.405 829.797 356.219 795.762 319.534C761.725 282.844 732.565 229.629 712.237 153.764C699.426 105.952 664.097 75.9182 618.694 55.7108C573.304 35.5085 517.777 25.0958 464.45 16.5537C456.133 15.2215 447.871 13.9349 439.708 12.6638C395.5 5.77959 354.235 -0.646134 323.237 -11.3701C304.88 -17.7208 290.187 -25.5591 280.625 -35.8417C271.091 -46.0938 266.632 -58.8031 268.772 -74.9988C273.139 -91.1245 289.819 -106.267 315.965 -120.176C342.097 -134.077 377.56 -146.681 419.249 -157.784C502.622 -179.987 610.811 -196.164 718.854 -204.734C826.898 -213.305 934.768 -214.266 1017.5 -206.05C1058.87 -201.941 1093.93 -195.54 1119.58 -186.66C1132.4 -182.22 1142.85 -177.168 1150.55 -171.488C1158.26 -165.809 1163.18 -159.527 1165.03 -152.633Z" stroke="#E0E0E0"/>
<path d="M-219.598 585.225C-246.413 539.264 -292.667 435.573 -320.717 336.668C-334.743 287.215 -344.206 238.993 -344.426 199.799C-344.646 160.567 -335.605 130.58 -312.857 117.308C-266.842 90.461 -198.349 50.8626 -123.307 48.9093C-85.8027 47.933 -46.6593 56.3612 -7.86197 80.502C30.94 104.646 69.421 144.521 105.569 206.478C128.36 245.543 166.722 263.52 211.587 270.416C256.44 277.309 307.869 273.139 356.904 267.85C364.552 267.025 372.141 266.173 379.638 265.331C420.241 260.773 458.136 256.518 488.019 258.518C505.716 259.702 520.537 263.077 531.425 269.833C542.277 276.568 549.255 286.683 551.262 301.453C551.291 316.692 540.249 334.03 520.562 352.567C500.885 371.093 472.676 390.719 438.619 410.52C370.508 450.119 279.085 490.372 185.96 523.888C92.8361 557.404 -1.96424 584.174 -76.8253 596.817C-114.259 603.139 -146.682 605.923 -171.408 604.263C-183.771 603.433 -194.186 601.492 -202.332 598.342C-210.479 595.191 -216.32 590.845 -219.598 585.225Z" stroke="#E0E0E0"/>
</svg>
